<svg width="22" height="20" viewBox="0 0 22 20" fill="none" xmlns="http://www.w3.org/2000/svg">
<path fill-rule="evenodd" clip-rule="evenodd" d="M2.56818 3.1366C1.90196 3.1366 1.5 3.60581 1.5 4.02296V17.1139C1.5 17.531 1.90196 18.0002 2.56818 18.0002H18.9318C19.598 18.0002 20 17.531 20 17.1139V4.02296C20 3.60581 19.598 3.1366 18.9318 3.1366H2.56818ZM0 4.02296C0 2.63263 1.2261 1.6366 2.56818 1.6366H18.9318C20.2739 1.6366 21.5 2.63263 21.5 4.02296V17.1139C21.5 18.5042 20.2739 19.5002 18.9318 19.5002H2.56818C1.2261 19.5002 0 18.5042 0 17.1139V4.02296Z" fill="#616161"/>
<path fill-rule="evenodd" clip-rule="evenodd" d="M6.04564 0.000416636L6.04431 4.77314L4.54431 4.77273L4.54564 0L6.04564 0.000416636Z" fill="#616161"/>
<path fill-rule="evenodd" clip-rule="evenodd" d="M16.9548 0.000416458L16.9534 4.77314L15.4534 4.77273L15.4548 0L16.9548 0.000416458Z" fill="#616161"/>
<path fill-rule="evenodd" clip-rule="evenodd" d="M20.75 7.80017H0.75V6.30017H20.75V7.80017Z" fill="#616161"/>
</svg>
