<svg width="120" height="24" viewBox="0 0 120 24" fill="none" xmlns="http://www.w3.org/2000/svg">
<path d="M8.5926 19.2353C10.1533 19.0446 11.7224 18.2351 12.8889 16.9835L11.7008 15.8823C10.843 16.8167 9.70061 17.4414 8.59284 17.619L8.5926 19.2353Z" fill="black"/>
<path d="M6.79283 4.98668C6.95753 4.97486 7.12392 4.96846 7.29199 4.96846H7.30134C7.13039 4.9687 6.96089 4.9751 6.79283 4.98668C3.00241 5.24939 0.000240097 8.3697 0 12.168C0 15.7146 2.64106 18.6449 6.07325 19.2353V17.6586C3.5323 17.0915 1.60528 14.8397 1.60552 12.168C1.60552 9.33564 3.74479 6.98664 6.51527 6.60429C6.60699 6.59152 6.69942 6.58114 6.79258 6.57286C6.96329 6.55749 7.13641 6.54944 7.31144 6.54944C7.67951 6.54944 8.04301 6.58444 8.39788 6.65206C8.48335 6.66838 8.5681 6.68658 8.65237 6.70668C9.51672 6.91216 10.322 7.31439 11.0036 7.8845C11.063 7.93439 11.1213 7.9857 11.1787 8.0382H12.1726L12.1728 4.7647H11.1527C11.1527 4.7647 11.0603 5.65988 10.1741 5.54259V5.54282C9.60869 5.30566 9.01229 5.13895 8.39788 5.04838C8.39788 5.04838 7.45862 4.91953 6.79283 4.98668Z" fill="black"/>
<path d="M8.5926 16.4118C9.53521 16.224 10.2701 15.7541 10.9198 15.0401L9.74046 13.9412C9.39749 14.334 9.08206 14.5536 8.5926 14.712V16.4118Z" fill="black"/>
<path d="M6.62835 9.60129C6.86298 9.54116 7.10912 9.50885 7.36283 9.50885C8.42493 9.55986 8.97798 9.82061 9.74045 10.5882L10.9198 9.48929C9.53435 8.29753 8.69817 7.83243 6.62835 7.9901C4.65432 8.29413 2.86444 10.1182 2.8642 12.268C2.8642 14.1554 4.18318 15.7941 6.04751 16.4118V14.727C5.22569 14.2414 4.49977 13.2635 4.50002 12.268C4.50002 11.1438 5.20171 10.1748 6.20508 9.74537C6.34111 9.68712 6.48253 9.63879 6.62835 9.60129Z" fill="black"/>
<path d="M7.33962 9C7.04288 9 6.80247 8.7735 6.80247 8.49413V7.74119C6.80247 7.46182 7.04288 7.23529 7.33962 7.23529C7.63612 7.23529 7.87654 7.46182 7.87654 7.74119V8.49413C7.87654 8.7735 7.63612 9 7.33962 9Z" fill="black"/>
<path d="M7.33951 20.8235C7.04294 20.8235 6.80247 20.5891 6.80247 20.3V10.7588C6.80247 10.4697 7.04294 10.2353 7.33951 10.2353C7.63608 10.2353 7.87654 10.4697 7.87654 10.7588V20.3C7.87654 20.5891 7.63608 20.8235 7.33951 20.8235Z" fill="black"/>
<path d="M7.33962 5.82353C7.04288 5.82353 6.80247 5.64368 6.80247 5.42213V0.401158C6.80247 0.17961 7.04288 0 7.33962 0C7.63612 0 7.87654 0.17961 7.87654 0.401158V5.42213C7.87654 5.64368 7.63612 5.82353 7.33962 5.82353Z" fill="black"/>
<path d="M7.33422 22.1478L7.61555 22.3239C7.71757 22.3878 7.83566 22.4215 7.95736 22.4215C8.30685 22.4215 8.59154 22.1441 8.59154 21.8029C8.59154 21.462 8.30685 21.1845 7.95736 21.1845C7.84214 21.1845 7.72932 21.2149 7.63139 21.2723L7.34478 21.4406L7.06347 21.2643C6.96145 21.2004 6.84335 21.1667 6.72189 21.1667C6.3724 21.1667 6.08772 21.4442 6.08772 21.7853C6.08772 22.1263 6.3724 22.4037 6.72189 22.4037C6.83711 22.4037 6.94993 22.3733 7.04787 22.3159L7.33422 22.1478ZM7.95736 23.4706C7.73604 23.4706 7.51881 23.4291 7.31622 23.3491C7.12683 23.4174 6.92568 23.453 6.72189 23.453C5.77927 23.453 5.01234 22.7049 5.01234 21.7853C5.01234 20.8655 5.77927 20.1176 6.72189 20.1176C6.94321 20.1176 7.16044 20.1591 7.36303 20.2392C7.55218 20.1708 7.75357 20.1352 7.95736 20.1352C8.89998 20.1352 9.66666 20.8833 9.66666 21.8029C9.66666 22.7227 8.89998 23.4706 7.95736 23.4706Z" fill="black"/>
<path d="M7.33975 24C7.04294 24 6.80247 23.7402 6.80247 23.4197V22.8158C6.80247 22.4951 7.04294 22.2353 7.33975 22.2353C7.63607 22.2353 7.87654 22.4951 7.87654 22.8158V23.4197C7.87654 23.7402 7.63607 24 7.33975 24Z" fill="black"/>
<path d="M9.49483 22.2353H8.9432C8.65083 22.2353 8.41358 21.9982 8.41358 21.7059C8.41358 21.4135 8.65083 21.1765 8.9432 21.1765H9.49483C9.78744 21.1765 10.0247 21.4135 10.0247 21.7059C10.0247 21.9982 9.78744 22.2353 9.49483 22.2353Z" fill="black"/>
<path d="M5.73542 22.2353H5.18387C4.89155 22.2353 4.65432 21.9982 4.65432 21.7059C4.65432 21.4135 4.89155 21.1765 5.18387 21.1765H5.73542C6.02822 21.1765 6.26543 21.4135 6.26543 21.7059C6.26543 21.9982 6.02822 22.2353 5.73542 22.2353Z" fill="black"/>
<path d="M9.48766 3.47397V3.9378C9.48766 4.00474 9.76804 4.05882 10.1141 4.05882C10.4601 4.05882 10.7407 4.00474 10.7407 3.9378V3.47397C10.7407 3.40733 10.4601 3.35294 10.1141 3.35294C9.76804 3.35294 9.48766 3.40733 9.48766 3.47397Z" fill="black"/>
<path d="M9.48766 0.2975V0.761328C9.48766 0.82827 9.76804 0.882355 10.1141 0.882355C10.4601 0.882355 10.7407 0.82827 10.7407 0.761328V0.2975C10.7407 0.230857 10.4601 0.176473 10.1141 0.176473C9.76804 0.176473 9.48766 0.230857 9.48766 0.2975Z" fill="black"/>
<path d="M9.48766 0.615091V0.267242C9.48766 0.21726 9.76804 0.176473 10.1141 0.176473C10.4601 0.176473 10.7407 0.21726 10.7407 0.267242V0.615091C10.7407 0.665297 10.4601 0.705883 10.1141 0.705883C9.76804 0.705883 9.48766 0.665297 9.48766 0.615091Z" fill="black"/>
<path d="M10.1055 0.705883C10.0826 0.705883 10.0554 0.705883 10.0247 0.705883C10.0402 0.705883 10.0557 0.705883 10.0714 0.705883C10.3422 0.705883 10.5617 0.705883 10.5617 0.705883C10.5617 0.705883 10.3605 0.705883 10.1055 0.705883Z" fill="black"/>
<path d="M9.48765 2.11765C9.48765 2.11765 9.48765 1.35822 9.48765 1.14882C9.48765 0.985896 9.44915 0.882354 9.35159 0.882354C9.218 0.882354 9.16592 1.14623 9.07968 1.25751C8.99364 1.36855 8.95062 1.43967 8.95062 2.11765C8.95062 2.79563 8.99364 2.86675 9.07968 2.97779C9.16592 3.08883 9.218 3.35294 9.35159 3.35294C9.44915 3.35294 9.48765 3.24919 9.48765 3.0865C9.48765 2.8771 9.48765 2.11765 9.48765 2.11765Z" fill="black"/>
<path d="M9.29681 0.627389C9.29681 0.787881 9.1611 0.918046 8.99378 0.918046C8.82622 0.918046 8.69075 0.787881 8.69075 0.627389C8.69075 0.466897 8.82622 0.336732 8.99378 0.336732C9.1611 0.336732 9.29681 0.466897 9.29681 0.627389ZM9.29681 3.60791C9.29681 3.76863 9.1611 3.89879 8.99378 3.89879C8.82622 3.89879 8.69075 3.76863 8.69075 3.60791C8.69075 3.44741 8.82622 3.31725 8.99378 3.31725C9.1611 3.31725 9.29681 3.44741 9.29681 3.60791ZM8.55967 0.505377C8.54094 0.589122 8.54313 0.653284 8.55164 0.699239C8.42931 0.737029 8.24132 0.796277 8.11485 0.841299L8.07935 0.856698C7.9986 0.883991 7.93415 0.912684 7.88333 0.955839L7.88235 0.956773C7.85633 0.978934 7.83372 1.00505 7.81426 1.03701L7.80769 1.04867L7.79359 1.07551L7.79091 1.08134L7.78751 1.08926L7.78483 1.0951L7.78119 1.10396C7.72598 1.24322 7.70457 1.4667 7.69898 1.85323C7.69849 1.90035 7.69801 1.95004 7.69777 2.00206C7.69752 2.03915 7.69753 2.07787 7.69753 2.11776C7.69753 3.1395 7.75467 3.26874 8.07935 3.37885L8.11485 3.39422C8.24132 3.43901 8.42931 3.49828 8.55164 3.53631C8.54313 3.58226 8.54094 3.6464 8.55967 3.73015C8.58788 3.85845 8.75763 4.05882 9.19563 4.05882C9.76326 4.05882 10.2037 3.56057 10.2037 2.96479C10.2037 2.36901 10.2037 2.11776 10.2037 2.11776C10.2037 2.11776 10.2037 1.86652 10.2037 1.27051C10.2037 0.674728 9.76326 0.176471 9.19563 0.176471C8.75763 0.176471 8.58788 0.377077 8.55967 0.505377Z" fill="black"/>
<path d="M9.66667 3.88235V0.352944C9.79987 0.40546 9.92049 0.470835 10.0247 0.546285V3.68904C9.92049 3.76449 9.79987 3.82984 9.66667 3.88235Z" fill="black"/>
<path d="M9.75618 3.70588C9.8055 3.70588 9.84568 3.66446 9.84568 3.61318V0.445452C9.84568 0.394369 9.8055 0.352942 9.75618 0.352942C9.70685 0.352942 9.66667 0.394369 9.66667 0.445452V3.61318C9.66667 3.66446 9.70685 3.70588 9.75618 3.70588Z" fill="black"/>
<path d="M9.48766 3.26481C9.48766 3.31351 9.52751 3.35294 9.57672 3.35294H9.9354C9.98483 3.35294 10.0247 3.31351 10.0247 3.26481C10.0247 3.2159 9.98483 3.17647 9.9354 3.17647H9.57672C9.52751 3.17647 9.48766 3.2159 9.48766 3.26481Z" fill="black"/>
<path d="M9.48766 0.970589C9.48766 1.01934 9.52751 1.05882 9.57672 1.05882H9.9354C9.98483 1.05882 10.0247 1.01934 10.0247 0.970589C10.0247 0.921839 9.98483 0.882354 9.9354 0.882354H9.57672C9.52751 0.882354 9.48766 0.921839 9.48766 0.970589Z" fill="black"/>
<path d="M9.84568 1.61748H9.99561V2.61782H9.84568V3.88235C10.0632 3.68495 10.2037 3.34529 10.2037 2.96591C10.2037 2.36926 10.2037 2.11776 10.2037 2.11776C10.2037 2.11776 10.2037 1.86604 10.2037 1.26916C10.2037 0.890011 10.0632 0.550112 9.84568 0.352944V1.61748Z" fill="black"/>
<path d="M29.2995 14.4231C29.3778 14.4231 29.4471 14.4533 29.5075 14.5138L30.0729 15.1271C29.76 15.5147 29.3742 15.8116 28.9155 16.0178C28.4604 16.224 27.9129 16.3271 27.2729 16.3271C26.7004 16.3271 26.1849 16.2293 25.7262 16.0338C25.2711 15.8382 24.8818 15.5662 24.5582 15.2178C24.2347 14.8693 23.9858 14.4533 23.8115 13.9698C23.6409 13.4862 23.5555 12.9582 23.5555 12.3858C23.5555 11.8062 23.648 11.2765 23.8329 10.7965C24.0178 10.3129 24.2773 9.8969 24.6115 9.54846C24.9493 9.20001 25.3511 8.92979 25.8169 8.73779C26.2827 8.54224 26.7982 8.44446 27.3635 8.44446C27.9253 8.44446 28.4231 8.5369 28.8569 8.72179C29.2942 8.90668 29.6658 9.14846 29.9715 9.44712L29.4915 10.1138C29.4631 10.1565 29.4258 10.1938 29.3795 10.2258C29.3369 10.2578 29.2764 10.2738 29.1982 10.2738C29.1449 10.2738 29.0898 10.2596 29.0329 10.2311C28.976 10.1991 28.9138 10.1618 28.8462 10.1191C28.7787 10.0729 28.7004 10.0231 28.6115 9.96979C28.5227 9.91646 28.4195 9.86846 28.3022 9.82579C28.1849 9.77957 28.048 9.74224 27.8915 9.71379C27.7387 9.68179 27.5609 9.66579 27.3582 9.66579C27.0133 9.66579 26.6969 9.72801 26.4089 9.85246C26.1244 9.97335 25.8791 10.1511 25.6729 10.3858C25.4667 10.6169 25.3067 10.9013 25.1929 11.2391C25.0791 11.5733 25.0222 11.9556 25.0222 12.3858C25.0222 12.8196 25.0827 13.2053 25.2035 13.5431C25.328 13.8809 25.4951 14.1653 25.7049 14.3965C25.9147 14.6276 26.1618 14.8053 26.4462 14.9298C26.7307 15.0507 27.0364 15.1111 27.3635 15.1111C27.5591 15.1111 27.7351 15.1005 27.8915 15.0791C28.0515 15.0578 28.1973 15.024 28.3289 14.9778C28.464 14.9316 28.5902 14.8729 28.7075 14.8018C28.8284 14.7271 28.9475 14.6365 29.0649 14.5298C29.1004 14.4978 29.1378 14.4729 29.1769 14.4551C29.216 14.4338 29.2569 14.4231 29.2995 14.4231Z" fill="black"/>
<path d="M38.4263 15.0845C38.7036 15.0845 38.9507 15.0382 39.1676 14.9458C39.3881 14.8533 39.573 14.7236 39.7223 14.5565C39.8716 14.3893 39.9854 14.1867 40.0636 13.9485C40.1454 13.7102 40.1863 13.4436 40.1863 13.1485V8.52979H41.621V13.1485C41.621 13.6071 41.5463 14.032 41.397 14.4231C41.2512 14.8107 41.0396 15.1467 40.7623 15.4311C40.4885 15.712 40.1543 15.9325 39.7596 16.0925C39.365 16.2489 38.9205 16.3271 38.4263 16.3271C37.9285 16.3271 37.4823 16.2489 37.0876 16.0925C36.693 15.9325 36.357 15.712 36.0796 15.4311C35.8058 15.1467 35.5943 14.8107 35.445 14.4231C35.2992 14.032 35.2263 13.6071 35.2263 13.1485V8.52979H36.661V13.1431C36.661 13.4382 36.7001 13.7049 36.7783 13.9431C36.8601 14.1813 36.9756 14.3858 37.125 14.5565C37.2778 14.7236 37.4627 14.8533 37.6796 14.9458C37.9001 15.0382 38.149 15.0845 38.4263 15.0845Z" fill="black"/>
<path d="M51.6123 9.93246C51.5696 10.0071 51.5234 10.0622 51.4736 10.0978C51.4274 10.1298 51.3687 10.1458 51.2976 10.1458C51.223 10.1458 51.1412 10.1191 51.0523 10.0658C50.967 10.0089 50.8638 9.94668 50.743 9.87912C50.6221 9.81157 50.4798 9.75112 50.3163 9.69779C50.1563 9.6409 49.9661 9.61246 49.7456 9.61246C49.5465 9.61246 49.3723 9.63735 49.223 9.68712C49.0736 9.73335 48.9474 9.79912 48.8443 9.88446C48.7447 9.96979 48.6701 10.0729 48.6203 10.1938C48.5705 10.3111 48.5456 10.4409 48.5456 10.5831C48.5456 10.7645 48.5954 10.9156 48.695 11.0365C48.7981 11.1573 48.9332 11.2605 49.1003 11.3458C49.2674 11.4311 49.4576 11.5076 49.671 11.5751C49.8843 11.6427 50.103 11.7156 50.327 11.7938C50.551 11.8685 50.7696 11.9573 50.983 12.0605C51.1963 12.16 51.3865 12.288 51.5536 12.4445C51.7207 12.5973 51.8541 12.7858 51.9536 13.0098C52.0567 13.2338 52.1083 13.5058 52.1083 13.8258C52.1083 14.1742 52.0478 14.5013 51.927 14.8071C51.8096 15.1093 51.6354 15.3742 51.4043 15.6018C51.1767 15.8258 50.8976 16.0036 50.567 16.1351C50.2363 16.2631 49.8576 16.3271 49.431 16.3271C49.1856 16.3271 48.9438 16.3022 48.7056 16.2525C48.4674 16.2062 48.2381 16.1387 48.0176 16.0498C47.8007 15.9609 47.5963 15.8542 47.4043 15.7298C47.2123 15.6053 47.0416 15.4667 46.8923 15.3138L47.3136 14.6258C47.3492 14.576 47.3954 14.5351 47.4523 14.5031C47.5092 14.4676 47.5696 14.4498 47.6336 14.4498C47.7225 14.4498 47.8185 14.4871 47.9216 14.5618C48.0247 14.6329 48.1474 14.7129 48.2896 14.8018C48.4318 14.8907 48.5972 14.9725 48.7856 15.0471C48.9776 15.1182 49.207 15.1538 49.4736 15.1538C49.8825 15.1538 50.199 15.0578 50.423 14.8658C50.647 14.6702 50.759 14.3911 50.759 14.0285C50.759 13.8258 50.7074 13.6605 50.6043 13.5325C50.5047 13.4045 50.3714 13.2978 50.2043 13.2125C50.0372 13.1236 49.847 13.0489 49.6336 12.9885C49.4203 12.928 49.2034 12.8622 48.983 12.7911C48.7625 12.72 48.5456 12.6347 48.3323 12.5351C48.119 12.4356 47.9287 12.3058 47.7616 12.1458C47.5945 11.9858 47.4594 11.7867 47.3563 11.5485C47.2567 11.3067 47.207 11.0098 47.207 10.6578C47.207 10.3769 47.2621 10.1031 47.3723 9.83646C47.4861 9.56979 47.6496 9.33335 47.863 9.12712C48.0763 8.9209 48.3394 8.75557 48.6523 8.63112C48.9652 8.50668 49.3243 8.44446 49.7296 8.44446C50.1847 8.44446 50.6043 8.51557 50.9883 8.65779C51.3723 8.80001 51.6994 8.99912 51.9696 9.25512L51.6123 9.93246Z" fill="black"/>
<path d="M63.0131 9.70846H60.6878V16.2418H59.2531V9.70846H56.9278V8.52979H63.0131V9.70846Z" fill="black"/>
<path d="M75.3832 12.3858C75.3832 12.9511 75.289 13.4756 75.1005 13.9591C74.9157 14.4391 74.6525 14.8551 74.3112 15.2071C73.9699 15.5591 73.5592 15.8347 73.0792 16.0338C72.5992 16.2293 72.0659 16.3271 71.4792 16.3271C70.8961 16.3271 70.3645 16.2293 69.8845 16.0338C69.4045 15.8347 68.9921 15.5591 68.6472 15.2071C68.3059 14.8551 68.041 14.4391 67.8525 13.9591C67.6641 13.4756 67.5699 12.9511 67.5699 12.3858C67.5699 11.8205 67.6641 11.2978 67.8525 10.8178C68.041 10.3342 68.3059 9.91646 68.6472 9.56446C68.9921 9.21246 69.4045 8.93868 69.8845 8.74312C70.3645 8.54401 70.8961 8.44446 71.4792 8.44446C71.8703 8.44446 72.2383 8.49068 72.5832 8.58312C72.9281 8.67201 73.2445 8.80001 73.5325 8.96712C73.8205 9.13068 74.0783 9.33157 74.3059 9.56979C74.537 9.80446 74.7325 10.0676 74.8925 10.3591C75.0525 10.6507 75.1734 10.9671 75.2552 11.3085C75.3405 11.6498 75.3832 12.0089 75.3832 12.3858ZM73.9165 12.3858C73.9165 11.9627 73.8597 11.584 73.7459 11.2498C73.6321 10.912 73.4703 10.6258 73.2605 10.3911C73.0508 10.1565 72.7948 9.9769 72.4925 9.85246C72.1939 9.72801 71.8561 9.66579 71.4792 9.66579C71.1023 9.66579 70.7628 9.72801 70.4605 9.85246C70.1619 9.9769 69.9059 10.1565 69.6925 10.3911C69.4828 10.6258 69.321 10.912 69.2072 11.2498C69.0934 11.584 69.0365 11.9627 69.0365 12.3858C69.0365 12.8089 69.0934 13.1893 69.2072 13.5271C69.321 13.8613 69.4828 14.1458 69.6925 14.3805C69.9059 14.6116 70.1619 14.7893 70.4605 14.9138C70.7628 15.0382 71.1023 15.1005 71.4792 15.1005C71.8561 15.1005 72.1939 15.0382 72.4925 14.9138C72.7948 14.7893 73.0508 14.6116 73.2605 14.3805C73.4703 14.1458 73.6321 13.8613 73.7459 13.5271C73.8597 13.1893 73.9165 12.8089 73.9165 12.3858Z" fill="black"/>
<path d="M87.7578 12.3858C87.7578 12.9511 87.6636 13.4702 87.4751 13.9431C87.2867 14.416 87.0218 14.8231 86.6805 15.1645C86.3391 15.5058 85.9285 15.7707 85.4485 15.9591C84.9685 16.1476 84.4351 16.2418 83.8485 16.2418H80.9098V8.52979H83.8485C84.4351 8.52979 84.9685 8.62579 85.4485 8.81779C85.9285 9.00624 86.3391 9.27112 86.6805 9.61246C87.0218 9.95024 87.2867 10.3556 87.4751 10.8285C87.6636 11.3013 87.7578 11.8205 87.7578 12.3858ZM86.2858 12.3858C86.2858 11.9627 86.2289 11.584 86.1151 11.2498C86.0049 10.912 85.8431 10.6276 85.6298 10.3965C85.42 10.1618 85.164 9.98224 84.8618 9.85779C84.5631 9.73335 84.2253 9.67112 83.8485 9.67112H82.3498V15.1005H83.8485C84.2253 15.1005 84.5631 15.0382 84.8618 14.9138C85.164 14.7893 85.42 14.6116 85.6298 14.3805C85.8431 14.1458 86.0049 13.8613 86.1151 13.5271C86.2289 13.1893 86.2858 12.8089 86.2858 12.3858Z" fill="black"/>
<path d="M94.731 16.2418H93.291V8.52979H94.731V16.2418Z" fill="black"/>
<path d="M104.799 13.3298L103.86 10.7645C103.814 10.6507 103.766 10.5156 103.716 10.3591C103.667 10.2027 103.617 10.0338 103.567 9.85246C103.521 10.0338 103.473 10.2045 103.423 10.3645C103.373 10.5209 103.325 10.6578 103.279 10.7751L102.346 13.3298H104.799ZM107.332 16.2418H106.223C106.099 16.2418 105.997 16.2116 105.919 16.1511C105.841 16.0871 105.782 16.0089 105.743 15.9165L105.167 14.3431H101.972L101.396 15.9165C101.368 15.9982 101.313 16.0729 101.231 16.1405C101.149 16.208 101.048 16.2418 100.927 16.2418H99.807L102.842 8.52979H104.303L107.332 16.2418Z" fill="black"/>
<path d="M118.899 8.52979V16.2418H118.163C118.049 16.2418 117.953 16.224 117.875 16.1885C117.8 16.1493 117.727 16.0853 117.656 15.9965L113.629 10.8551C113.651 11.0898 113.661 11.3067 113.661 11.5058V16.2418H112.397V8.52979H113.149C113.21 8.52979 113.261 8.53335 113.304 8.54046C113.35 8.54401 113.389 8.55468 113.421 8.57246C113.457 8.58668 113.491 8.60979 113.523 8.64179C113.555 8.67024 113.59 8.70935 113.629 8.75912L117.672 13.9218C117.661 13.7973 117.652 13.6747 117.645 13.5538C117.638 13.4329 117.635 13.3209 117.635 13.2178V8.52979H118.899Z" fill="black"/>
</svg>
