<svg width="16" height="16" viewBox="0 0 16 16" fill="none" xmlns="http://www.w3.org/2000/svg">
<path fill-rule="evenodd" clip-rule="evenodd" d="M8 2.25C5.62364 2.25 3.75 4.09181 3.75 6.3C3.75 6.76993 3.98629 7.47655 4.44532 8.35105C4.89039 9.19894 5.49219 10.1083 6.10654 10.953C6.71887 11.7949 7.33283 12.5577 7.79456 13.111C7.86707 13.1979 7.93575 13.2795 8 13.3553C8.06425 13.2795 8.13293 13.1979 8.20544 13.111C8.66717 12.5577 9.28113 11.7949 9.89346 10.953C10.5078 10.1083 11.1096 9.19894 11.5547 8.35105C12.0137 7.47655 12.25 6.76993 12.25 6.3C12.25 4.09181 10.3764 2.25 8 2.25ZM8 14.5C7.44282 15.002 7.44275 15.002 7.44265 15.0019L7.43825 14.997L7.42657 14.9839L7.38275 14.9347C7.34475 14.8919 7.28958 14.8293 7.2197 14.7491C7.07995 14.5887 6.88115 14.3575 6.64294 14.0721C6.16717 13.5021 5.53113 12.712 4.89346 11.8353C4.25781 10.9613 3.60961 9.98634 3.11718 9.0482C2.63871 8.13668 2.25 7.15555 2.25 6.3C2.25 3.20626 4.85351 0.75 8 0.75C11.1465 0.75 13.75 3.20626 13.75 6.3C13.75 7.15555 13.3613 8.13668 12.8828 9.0482C12.3904 9.98634 11.7422 10.9613 11.1065 11.8353C10.4689 12.712 9.83283 13.5021 9.35706 14.0721C9.11885 14.3575 8.92005 14.5887 8.7803 14.7491C8.71042 14.8293 8.65525 14.8919 8.61725 14.9347L8.57343 14.9839L8.56175 14.997L8.55764 15.0015C8.55754 15.0016 8.55718 15.002 8 14.5ZM8 14.5L8.55764 15.0015L8 15.6204L7.44265 15.0019L8 14.5Z" fill="#616161"/>
<path d="M10 6.5C10 7.60457 9.10457 8.5 8 8.5C6.89543 8.5 6 7.60457 6 6.5C6 5.39543 6.89543 4.5 8 4.5C9.10457 4.5 10 5.39543 10 6.5Z" fill="#616161"/>
</svg>
